<svg width="22" height="22" viewBox="0 0 20 22" fill="white" xmlns="http://www.w3.org/2000/svg">
<path d="M6.25 4.125C6.25 3.03098 6.64509 1.98177 7.34835 1.20818C8.05161 0.434597 9.00544 0 10 0C10.9946 0 11.9484 0.434597 12.6517 1.20818C13.3549 1.98177 13.75 3.03098 13.75 4.125V11C13.75 12.094 13.3549 13.1432 12.6517 13.9168C11.9484 14.6904 10.9946 15.125 10 15.125C9.00544 15.125 8.05161 14.6904 7.34835 13.9168C6.64509 13.1432 6.25 12.094 6.25 11V4.125Z"/>
<path d="M4.375 8.9375C4.54076 8.9375 4.69973 9.00993 4.81694 9.13886C4.93415 9.2678 5 9.44266 5 9.625V11C5 12.4587 5.52678 13.8576 6.46447 14.8891C7.40215 15.9205 8.67392 16.5 10 16.5C11.3261 16.5 12.5979 15.9205 13.5355 14.8891C14.4732 13.8576 15 12.4587 15 11V9.625C15 9.44266 15.0658 9.2678 15.1831 9.13886C15.3003 9.00993 15.4592 8.9375 15.625 8.9375C15.7908 8.9375 15.9497 9.00993 16.0669 9.13886C16.1842 9.2678 16.25 9.44266 16.25 9.625V11C16.25 12.7044 15.6745 14.348 14.6352 15.6119C13.5958 16.8759 12.1666 17.6702 10.625 17.8406V20.625H14.375C14.5408 20.625 14.6997 20.6974 14.8169 20.8264C14.9342 20.9553 15 21.1302 15 21.3125C15 21.4948 14.9342 21.6697 14.8169 21.7986C14.6997 21.9276 14.5408 22 14.375 22H5.625C5.45924 22 5.30027 21.9276 5.18306 21.7986C5.06585 21.6697 5 21.4948 5 21.3125C5 21.1302 5.06585 20.9553 5.18306 20.8264C5.30027 20.6974 5.45924 20.625 5.625 20.625H9.375V17.8406C7.83336 17.6702 6.40422 16.8759 5.36485 15.6119C4.32548 14.348 3.74998 12.7044 3.75 11V9.625C3.75 9.44266 3.81585 9.2678 3.93306 9.13886C4.05027 9.00993 4.20924 8.9375 4.375 8.9375Z"/>
</svg>
