<svg width="40" height="40" viewBox="0 0 40 40" fill="none" xmlns="http://www.w3.org/2000/svg">
<g clip-path="url(#clip0_1_2)">
<path fill-rule="evenodd" clip-rule="evenodd" d="M31.0172 4.59539L35.317 8.90586C41.4291 15.033 41.4291 24.967 35.317 31.0941L31.0172 35.4046C24.9052 41.5318 14.9959 41.5318 8.88383 35.4046L4.58402 31.0941C-1.52801 24.967 -1.52801 15.033 4.58402 8.90586L8.88383 4.59539C14.9959 -1.5318 24.9052 -1.5318 31.0172 4.59539Z" fill="#F9F9F9"/>
<path d="M19.963 33.3674C17.9405 33.3674 16.1087 32.3063 14.5192 30.2145C13.2977 28.6067 12.2464 26.3783 11.5603 23.9399L11.4169 23.4317H15.2632C15.8958 23.4317 16.49 23.203 16.9382 22.7886C17.3854 22.3733 17.6322 21.7114 17.6322 20.9227C17.6322 19.0828 16.8794 18.2262 15.2632 18.2262H11.3037V17.8198C11.3037 16.2523 11.8552 14.792 12.8567 13.7077C13.9597 12.5126 15.5483 11.8418 17.471 11.7543V8.34146H13.1266C12.6847 8.34146 12.3248 8.00742 12.3248 7.59745C12.3248 7.18748 12.6847 6.85343 13.1266 6.85343H19.0756V11.7186C19.1709 11.7168 19.2823 11.7159 19.4151 11.7159C19.8303 11.7159 20.3149 11.7257 20.7043 11.7337C20.7542 11.7346 20.8032 11.7355 20.8495 11.7364V6.85254H26.7985C27.2404 6.85254 27.6004 7.18659 27.6004 7.59655C27.6004 8.00652 27.2404 8.34057 26.7985 8.34057H22.4542V11.7534C26.7094 11.9427 28.6214 14.8938 28.6214 17.8198V18.2262H24.662C23.0458 18.2262 22.2929 19.0828 22.2929 20.9227C22.2929 21.7105 22.5397 22.3733 22.987 22.7886C23.4342 23.2039 24.0294 23.4317 24.662 23.4317H28.5083L28.3648 23.9399C27.6788 26.3774 26.6283 28.6058 25.4059 30.2145C23.8164 32.3063 21.9855 33.3674 19.963 33.3674ZM16.9248 26.6176C16.9248 26.6453 16.9248 26.6739 16.9266 26.7007V26.7159C16.9266 28.3299 18.402 29.8545 19.9621 29.8545C21.5222 29.8545 22.9976 28.329 22.9976 26.7159V26.7007C22.9994 26.6739 22.9994 26.6462 22.9994 26.6185H16.9239L16.9248 26.6176Z" fill="#76C142"/>
<path d="M11.9381 23.8379C11.9381 23.8379 14.3125 32.5955 19.4293 32.9742C20.3809 33.0448 20.3488 32.9573 20.3586 32.9224C20.3764 32.859 19.3732 32.7617 18.2363 32.107C16.8491 31.3085 15.722 30.2599 14.6243 28.4673C14.2519 27.8599 13.6327 26.6068 13.475 26.1218C12.8825 24.2961 13.2888 23.9406 13.1088 23.7147C12.8469 23.386 11.9372 23.837 11.9372 23.837" fill="#C0E247"/>
<path d="M28.093 23.5369C28.093 23.5369 26.0322 32.574 20.968 33.3484C20.0262 33.4922 20.0494 33.402 20.0369 33.369C20.0137 33.3073 21.0045 33.1323 22.0781 32.3927C23.3887 31.4897 24.4169 30.3572 25.3488 28.486C25.6651 27.8518 26.1801 26.6344 26.3262 26.1458C26.8163 24.5069 26.7512 23.8379 26.9784 23.5869C27.497 23.0117 28.0939 23.5387 28.0939 23.5387" fill="#3B7F1F"/>
<path d="M11.7439 17.8205C11.7439 17.8205 11.2877 12.2811 17.5966 12.1551C17.969 12.148 16.7413 12.2418 14.3633 14.037C12.8718 15.1624 12.47 16.579 11.7439 17.8205Z" fill="#C0E247"/>
<path d="M18.6934 7.22583L12.6473 7.23298C12.6473 7.23298 12.3016 9.1542 12.9271 8.02433C13.2291 7.47771 17.1583 7.56434 18.043 7.45002C18.5027 7.39107 18.6925 7.22672 18.6925 7.22672" fill="#C0E247"/>
<path d="M27.4747 8.06902C27.4747 8.06902 27.4168 6.02543 27.195 7.27767C27.064 8.01811 22.8854 7.73944 22.0167 7.93504C21.9178 7.95737 22.798 7.97434 22.8159 7.99042C22.8747 8.0458 27.4747 8.06902 27.4747 8.06902Z" fill="#3B7F1F"/>
<path d="M14.1432 19.5883L13.6225 20.4207L15.8236 21.8043L16.3443 20.9719L14.1432 19.5883Z" fill="black"/>
<path d="M25.8774 19.5878L23.6763 20.9714L24.1969 21.8038L26.398 20.4202L25.8774 19.5878Z" fill="black"/>
</g>
<defs>
<clipPath id="clip0_1_2">
<rect width="40" height="40" fill="white"/>
</clipPath>
</defs>
</svg>
