<svg width="23" height="22" viewBox="0 0 23 22" fill="none" xmlns="http://www.w3.org/2000/svg">
<path d="M16.5 3.5H20.25C20.5815 3.5 20.8995 3.6317 21.1339 3.86612C21.3683 4.10054 21.5 4.41848 21.5 4.75V18.5C21.5 19.163 21.2366 19.7989 20.7678 20.2678C20.2989 20.7366 19.663 21 19 21M19 21C18.337 21 17.7011 20.7366 17.2322 20.2678C16.7634 19.7989 16.5 19.163 16.5 18.5V2.25C16.5 1.91848 16.3683 1.60054 16.1339 1.36612C15.8995 1.1317 15.5815 1 15.25 1H2.75C2.41848 1 2.10054 1.1317 1.86612 1.36612C1.6317 1.60054 1.5 1.91848 1.5 2.25V17.25C1.5 18.2446 1.89509 19.1984 2.59835 19.9017C3.30161 20.6049 4.25544 21 5.25 21H19ZM6.5 6H11.5M6.5 11H11.5M6.5 16H11.5" stroke="#BDBDBD" stroke-width="2" stroke-linecap="round" stroke-linejoin="round"/>
</svg>
