<svg width="22" height="22" viewBox="0 0 22 22" fill="#333333" xmlns="http://www.w3.org/2000/svg">
<path d="M12.7647 2.29535C13.1241 2.29532 13.4773 2.38919 13.7892 2.56767C14.1011 2.74614 14.361 3.00302 14.5431 3.31285L15.2892 4.58427H17.1877C17.9776 4.58427 18.7353 4.89802 19.2939 5.45652C19.8526 6.01502 20.1666 6.77255 20.1668 7.56252V16.2709C20.1668 16.6621 20.0898 17.0495 19.9401 17.4109C19.7903 17.7724 19.5709 18.1008 19.2943 18.3774C19.0176 18.6541 18.6892 18.8735 18.3277 19.0232C17.9663 19.173 17.5789 19.25 17.1877 19.25H4.81266C4.02254 19.25 3.26478 18.9361 2.70607 18.3774C2.14737 17.8187 1.8335 17.061 1.8335 16.2709V7.56252C1.8335 6.77239 2.14737 6.01463 2.70607 5.45593C3.26478 4.89723 4.02254 4.58335 4.81266 4.58335H6.71933L7.52141 3.27802C7.70584 2.97755 7.9642 2.72938 8.27184 2.55718C8.57947 2.38499 8.92611 2.29453 9.27866 2.29443H12.7647V2.29535ZM12.7647 3.67035H9.27866C9.17835 3.67043 9.07927 3.69247 8.98837 3.7349C8.89747 3.77734 8.81697 3.83916 8.7525 3.91602L8.69291 3.99852L7.691 5.63018C7.62956 5.7304 7.54345 5.81318 7.44091 5.87063C7.33836 5.92809 7.22279 5.95829 7.10525 5.95835H4.81358C4.60284 5.95823 4.39414 5.99963 4.19941 6.0802C4.00468 6.16076 3.82773 6.2789 3.67867 6.42788C3.52961 6.57685 3.41137 6.75373 3.33069 6.94842C3.25002 7.1431 3.2085 7.35178 3.2085 7.56252V16.2709C3.2085 17.1564 3.92716 17.875 4.81266 17.875H17.1877C17.6131 17.875 18.0211 17.706 18.322 17.4052C18.6228 17.1043 18.7918 16.6963 18.7918 16.2709V7.56252C18.7918 7.13707 18.6228 6.72904 18.322 6.4282C18.0211 6.12736 17.6131 5.95835 17.1877 5.95835H14.896C14.7762 5.95841 14.6584 5.92715 14.5543 5.86765C14.4503 5.80816 14.3636 5.72251 14.3029 5.61918L13.3569 4.0086C13.2963 3.90541 13.2097 3.81984 13.1059 3.76036C13.002 3.70087 12.8844 3.66953 12.7647 3.66943V3.67035ZM11.0002 7.33335C12.0942 7.33335 13.1434 7.76795 13.917 8.54153C14.6906 9.31512 15.1252 10.3643 15.1252 11.4584C15.1252 12.5524 14.6906 13.6016 13.917 14.3752C13.1434 15.1488 12.0942 15.5834 11.0002 15.5834C9.90615 15.5834 8.85694 15.1488 8.08335 14.3752C7.30976 13.6016 6.87516 12.5524 6.87516 11.4584C6.87516 10.3643 7.30976 9.31512 8.08335 8.54153C8.85694 7.76795 9.90615 7.33335 11.0002 7.33335ZM11.0002 8.70835C10.639 8.70835 10.2814 8.77948 9.94778 8.91768C9.61414 9.05588 9.31098 9.25845 9.05562 9.51381C8.80026 9.76917 8.59769 10.0723 8.45949 10.406C8.32129 10.7396 8.25016 11.0972 8.25016 11.4584C8.25016 11.8195 8.32129 12.1771 8.45949 12.5107C8.59769 12.8444 8.80026 13.1475 9.05562 13.4029C9.31098 13.6583 9.61414 13.8608 9.94778 13.999C10.2814 14.1372 10.639 14.2084 11.0002 14.2084C11.7295 14.2084 12.429 13.9186 12.9447 13.4029C13.4604 12.8872 13.7502 12.1877 13.7502 11.4584C13.7502 10.729 13.4604 10.0295 12.9447 9.51381C12.429 8.99808 11.7295 8.70835 11.0002 8.70835Z"/>
</svg>
