<svg width="36" height="14" viewBox="0 0 36 14" fill="none" xmlns="http://www.w3.org/2000/svg">
<path d="M5.96741 13.2109C2.37268 13.2109 0.0875244 10.6797 0.0875244 6.6543V6.64551C0.0875244 2.62012 2.37268 0.106445 5.96741 0.106445C8.76233 0.106445 10.8629 1.8291 11.2584 4.33398L11.276 4.41309H9.32483L9.27209 4.2373C8.85022 2.75195 7.67249 1.84668 5.96741 1.84668C3.61194 1.84668 2.10022 3.70996 2.10022 6.64551V6.6543C2.10022 9.58984 3.62073 11.4707 5.96741 11.4707C7.65491 11.4707 8.82385 10.5918 9.29846 8.9834L9.32483 8.9043H11.276L11.2672 8.99219C10.8717 11.5146 8.77112 13.2109 5.96741 13.2109ZM15.5299 13.167C13.6842 13.167 12.4449 12.0332 12.4449 10.3721V10.3545C12.4449 8.74609 13.693 7.76172 15.8815 7.62988L18.3951 7.48047V6.78613C18.3951 5.7666 17.736 5.15137 16.5582 5.15137C15.4596 5.15137 14.7828 5.66992 14.6246 6.4082L14.6071 6.4873H12.8141L12.8229 6.39062C12.9547 4.7998 14.3346 3.57812 16.611 3.57812C18.8698 3.57812 20.3024 4.77344 20.3024 6.62793V13H18.3951V11.541H18.36C17.8239 12.5342 16.7516 13.167 15.5299 13.167ZM14.361 10.3281C14.361 11.1367 15.0289 11.6465 16.0485 11.6465C17.3844 11.6465 18.3951 10.7412 18.3951 9.53711V8.81641L16.1364 8.95703C14.9938 9.02734 14.361 9.52832 14.361 10.3105V10.3281ZM22.1481 13V3.75391H24.0465V5.33594H24.0905C24.3893 4.25488 25.1627 3.57812 26.2174 3.57812C26.4899 3.57812 26.7272 3.62207 26.8766 3.64844V5.41504C26.7272 5.35352 26.3932 5.30957 26.024 5.30957C24.8024 5.30957 24.0465 6.10938 24.0465 7.48926V13H22.1481ZM31.1041 13.1846C28.7487 13.1846 27.2369 11.3213 27.2369 8.37695V8.36816C27.2369 5.42383 28.7662 3.57812 31.0865 3.57812C32.3961 3.57812 33.4508 4.2373 34.0045 5.32715H34.0397V0.317383H35.9469V13H34.0397V11.4355H34.0045C33.4508 12.5166 32.4313 13.1846 31.1041 13.1846ZM31.6051 11.5498C33.0377 11.5498 34.0485 10.3018 34.0485 8.37695V8.36816C34.0485 6.45215 33.0289 5.2041 31.6051 5.2041C30.111 5.2041 29.1793 6.41699 29.1793 8.36816V8.37695C29.1793 10.3457 30.1022 11.5498 31.6051 11.5498Z" fill="white"/>
</svg>
